<?xml version="1.0" encoding="utf-8"?>
<!-- Generator: Adobe Illustrator 16.0.0, SVG Export Plug-In . SVG Version: 6.00 Build 0)  -->
<!DOCTYPE svg PUBLIC "-//W3C//DTD SVG 1.1//EN" "http://www.w3.org/Graphics/SVG/1.1/DTD/svg11.dtd">
<svg version="1.1" id="Layer_1" xmlns="http://www.w3.org/2000/svg" xmlns:xlink="http://www.w3.org/1999/xlink" x="0px" y="0px"
	 width="114px" height="90px" viewBox="0 0 114 90" enable-background="new 0 0 114 90" xml:space="preserve">
<g>
	<g opacity="0.2">
		<g>
			<defs>
				<rect id="SVGID_1_" x="24.626" y="76.363" width="12.698" height="12.694"/>
			</defs>
			<clipPath id="SVGID_2_">
				<use xlink:href="#SVGID_1_"  overflow="visible"/>
			</clipPath>
			<path clip-path="url(#SVGID_2_)" fill="#231F20" d="M37.174,81.345c0.754,3.427-1.414,6.813-4.836,7.563
				c-3.424,0.753-6.812-1.413-7.563-4.833c-0.753-3.427,1.414-6.811,4.836-7.563C33.037,75.755,36.421,77.925,37.174,81.345"/>
		</g>
	</g>
	<g opacity="0.2">
		<g>
			<defs>
				<rect id="SVGID_3_" x="82.489" y="63.643" width="12.696" height="12.699"/>
			</defs>
			<clipPath id="SVGID_4_">
				<use xlink:href="#SVGID_3_"  overflow="visible"/>
			</clipPath>
			<path clip-path="url(#SVGID_4_)" fill="#231F20" d="M95.037,68.631c0.751,3.422-1.413,6.811-4.838,7.563
				c-3.424,0.752-6.81-1.413-7.563-4.839c-0.751-3.423,1.414-6.807,4.837-7.56C90.898,63.039,94.282,65.208,95.037,68.631"/>
		</g>
	</g>
	<path fill="#85CEBB" d="M37.174,77.113c0.754,3.426-1.414,6.813-4.836,7.563c-3.424,0.756-6.812-1.413-7.563-4.833
		c-0.753-3.427,1.414-6.811,4.836-7.563C33.037,71.527,36.421,73.692,37.174,77.113"/>
	<path fill="#85CEBB" d="M95.037,64.399c0.751,3.426-1.413,6.81-4.838,7.563c-3.424,0.752-6.81-1.413-7.563-4.836
		c-0.751-3.426,1.414-6.811,4.837-7.563C90.898,58.808,94.282,60.977,95.037,64.399"/>
	<g opacity="0.2">
		<g>
			<defs>
				<rect id="SVGID_5_" x="3.497" y="39.187" width="107.657" height="35.221"/>
			</defs>
			<clipPath id="SVGID_6_">
				<use xlink:href="#SVGID_5_"  overflow="visible"/>
			</clipPath>
			<path clip-path="url(#SVGID_6_)" fill="#231F20" d="M22.934,74.407c-8.415,0-16.466-4.971-17.485-5.624
				c-1.968-1.255-2.544-3.876-1.285-5.843c1.258-1.968,3.874-2.545,5.845-1.286c2.402,1.525,9.822,5.239,15.16,4.063l66.127-14.533
				c5.35-1.173,10.631-7.811,12.061-10.047c1.257-1.967,3.874-2.541,5.843-1.281c1.972,1.261,2.545,3.877,1.285,5.845
				c-0.758,1.186-7.674,11.62-17.372,13.753L26.988,73.986C25.646,74.279,24.285,74.407,22.934,74.407"/>
		</g>
	</g>
	<path fill="#FED07D" d="M21.038,70.477c-8.347,0-16.582-5.194-16.979-5.449c-1.477-0.942-1.908-2.906-0.963-4.384
		c0.943-1.477,2.909-1.91,4.383-0.964c2.506,1.59,10.26,5.462,15.958,4.211l66.126-14.533c5.694-1.253,11.116-8.015,12.726-10.516
		c0.946-1.468,2.903-1.902,4.385-0.956c1.474,0.946,1.904,2.905,0.961,4.38c-0.291,0.458-7.266,11.215-16.708,13.29L24.798,70.09
		C23.561,70.362,22.297,70.477,21.038,70.477z"/>
</g>
<g>
	<path fill="#E44F26" d="M56.342,55.448l-19.044-0.749L22.774,10.966L66.543,0.641l6.549,45.608L56.342,55.448z M56.342,55.448"/>
	<path fill="#F1662A" d="M69.007,44.209L63.41,5.236l-17.889,4.22l9.95,42.185L69.007,44.209z M69.007,44.209"/>
	<path fill="#EBEBEB" d="M50.72,31.506l-1.292-5.48l-7.25,1.71l-1.823-5.493l7.75-1.829l-1.292-5.479l-0.019,0.004l-13.721,3.238
		l0.477,1.438l4.91,14.782L50.72,31.506z M50.72,31.506"/>
	<path fill="#EBEBEB" d="M52.787,40.256l-0.023,0.012l-6.491-0.211l-1.422-4.275l-2.966,0.698l-2.534,0.598l2.797,8.424
		l11.958,0.467l0.025-0.015L52.787,40.256z M52.787,40.256"/>
	<path fill="#FFFFFF" d="M62.146,23.026l-1.476,0.347l-11.26,2.656l1.294,5.48l6.746-1.591l1.04,7.255l-5.723,3.09l1.345,5.702
		l10.497-5.763l-0.137-0.947l-2.112-14.728L62.146,23.026z M62.146,23.026"/>
	<path fill="#FFFFFF" d="M60.521,11.702l-13.727,3.237l0.803,3.402l0.487,2.065l0.003,0.012L61.303,17.3l0,0l0.018-0.002
		l-0.179-1.259l-0.406-2.836L60.521,11.702z M60.521,11.702"/>
</g>
</svg>
